# xmcd CD database file
# Generated: Sun Jun 24 11:02:52 2001 by KSCD
# 
# Track frame offsets:
#       150
#       9795
#       26065
#       38300
#       50840
#       62945
#       78940
#       93037
#       106895
#       122575
#       139522
#       153690
#       168660
#       179565
#       198852
#
# Disc length: 2845 seconds
#
# Revision: 9
# Processed by: cddbd v1.4b41PL3 Copyright (c) Steve Scherf et al.
# Submitted via: Kscd 1.3.0
#
DISCID=b90b1b0f
DTITLE=Frank Baum - Walk On Strings
DYEAR=1900
DGENRE=
TTITLE0=Walk On Strings
TTITLE1=Banks Of The Ohio
TTITLE2=King Of The Road
TTITLE3=I Love You So Much, It Hurts
TTITLE4=On A Cool Day In July
TTITLE5=Green, Green Grass Of Home
TTITLE6=Take Me Home, Country Road
TTITLE7=No More Sad Songs
TTITLE8=I'm So Lonesome I Could Cry
TTITLE9=Blue Eyes Cryin' In The Rain
TTITLE10=Baumy Bayou
TTITLE11=House Of The Rising Sun
TTITLE12=Li'l Liza Jane
TTITLE13=Londonderry Air
TTITLE14=Detroit City
EXTD=
EXTT0=
EXTT1=
EXTT2=
EXTT3=
EXTT4=
EXTT5=
EXTT6=
EXTT7=
EXTT8=
EXTT9=
EXTT10=
EXTT11=
EXTT12=
EXTT13=
EXTT14=
PLAYORDER=
